<svg width="16" height="16" viewBox="0 0 16 16" fill="none" xmlns="http://www.w3.org/2000/svg">
<g id="24 / basic / copy">
<path id="icon" fill-rule="evenodd" clip-rule="evenodd" d="M6.66683 1.33301H13.3335C14.1017 1.33301 14.6668 1.89815 14.6668 2.66634V9.33301C14.6668 10.1012 14.1017 10.6663 13.3335 10.6663H10.6668V13.333C10.6668 14.1012 10.1017 14.6663 9.3335 14.6663H2.66683C1.89864 14.6663 1.3335 14.1012 1.3335 13.333V6.66634C1.3335 5.89815 1.89864 5.33301 2.66683 5.33301H5.3335V2.66634C5.3335 1.89815 5.89864 1.33301 6.66683 1.33301ZM5.3335 6.66634H2.66683V13.333H9.3335V10.6663H6.66683C5.89864 10.6663 5.3335 10.1012 5.3335 9.33301V6.66634ZM6.66683 2.66634V9.33301H13.3335V2.66634H6.66683Z" fill="#0088CC"/>
</g>
</svg>
