<svg width="28" height="28" viewBox="0 0 28 28" fill="none" xmlns="http://www.w3.org/2000/svg">
<circle cx="14" cy="14" r="14" fill="#F0F4FB"/>
<path d="M15.5869 10.7999C16.4717 11.037 17.2106 11.6041 17.6686 12.397L18.2403 13.3873L20.22 12.2441L19.6486 11.2548C19.0793 10.2691 18.2495 9.49364 17.2528 8.99836L17.874 6.68003L15.6661 6.08845L15.045 8.40678C13.9343 8.33679 12.8279 8.59351 11.8426 9.16258C10.5206 9.92564 9.57495 11.1585 9.17994 12.6327C8.78492 14.1069 8.98743 15.6474 9.75098 16.9687C10.3324 17.9757 11.1773 18.7371 12.1475 19.2201L11.525 21.5433L13.7329 22.1348L14.3554 19.8117C15.4371 19.8785 16.5495 19.6416 17.5565 19.0602L18.5467 18.4892L17.4036 16.5099L16.414 17.0812C14.7762 18.0266 12.6759 17.4627 11.7305 15.8263C11.2724 15.0325 11.1507 14.1091 11.3878 13.2243C11.6248 12.3395 12.192 11.6006 12.9856 11.1422C13.7786 10.6845 14.7021 10.5628 15.5869 10.7999Z" fill="#BFC6D5"/>
</svg>
