<svg width="24" height="24" viewBox="0 0 24 24" fill="none" xmlns="http://www.w3.org/2000/svg">
<path fill-rule="evenodd" clip-rule="evenodd" d="M14.4753 14.2903H15.295H16.1146V17.5162V19.9355H11.1966L11.1967 23L9.04917 22.2799L4.11633 20.662C3.4459 20.433 3 20.2782 3 20.2782V3H4.63938C4.66196 3 4.68378 3.00459 4.70558 3.00919C4.72248 3.01275 4.73936 3.0163 4.75659 3.01772C4.76929 3.01605 4.78125 3.01267 4.79315 3.00931C4.80968 3.00464 4.8261 3 4.84424 3H13.6556H16.1146V7.83872H15.295H14.4753L14.4754 4.61267L13.6556 4.61281H9.83757H7.91803L11.1966 5.41936V18.3226H14.4753V17.5162V14.2903ZM19.153 7.26859L23 11.0644C23 11.0644 22.7522 11.3194 22.4318 11.6346L19.153 14.8605L17.7541 16.2257L17.7539 11.8709H13.6556V11.0645V10.2581H17.7539L17.7541 5.90301L19.153 7.26859Z" fill="white"/>
</svg>
