<svg width="21" height="20" viewBox="0 0 21 20" fill="none" xmlns="http://www.w3.org/2000/svg">
<circle cx="10.5" cy="10" r="9" stroke="white" stroke-opacity="0.32" stroke-width="2"/>
<mask id="path-2-inside-1" fill="white">
<path d="M19.7389 13.8268C20.2414 12.6136 20.5001 11.3132 20.5001 10H18.5001C18.5 14.5 14.9 18 10.5001 18V20C11.8133 20 13.1136 19.7413 14.3269 19.2388C15.5402 18.7363 16.6426 17.9997 17.5711 17.0711C18.4997 16.1425 19.2363 15.0401 19.7389 13.8268Z"/>
</mask>
<path d="M20.5001 10H22.5001V8H20.5001V10ZM19.7389 13.8268L17.8911 13.0615L19.7389 13.8268ZM10.5001 20H8.50007V22L10.5001 22L10.5001 20ZM10.5001 18V16H8.50007V18H10.5001ZM18.5001 10V8H16.5001L16.5001 9.99997L18.5001 10ZM18.5001 10C18.5001 11.0506 18.2932 12.0909 17.8911 13.0615L21.5866 14.5922C22.1897 13.1363 22.5001 11.5759 22.5001 10H18.5001ZM17.8911 13.0615C17.4891 14.0321 16.8998 14.914 16.1569 15.6569L18.9854 18.4853C20.0997 17.371 20.9836 16.0481 21.5866 14.5922L17.8911 13.0615ZM16.1569 15.6569C15.4141 16.3997 14.5321 16.989 13.5615 17.391L15.0923 21.0866C16.5482 20.4835 17.871 19.5996 18.9854 18.4853L16.1569 15.6569ZM13.5615 17.391C12.5909 17.7931 11.5506 18 10.5001 18L10.5001 22C12.0759 22 13.6364 21.6896 15.0923 21.0866L13.5615 17.391ZM12.5001 20V18H8.50007V20H12.5001ZM18.5001 12H20.5001V8H18.5001V12ZM10.5001 20C15.9882 20 20.5 15.6209 20.5001 10L16.5001 9.99997C16.5 13.3791 13.8118 16 10.5001 16V20Z" fill="white" mask="url(#path-2-inside-1)"/>
</svg>
