<svg width="28" height="28" viewBox="0 0 28 28" fill="none" xmlns="http://www.w3.org/2000/svg">
<path d="M14 28C21.732 28 28 21.732 28 14C28 6.26801 21.732 0 14 0C6.26801 0 0 6.26801 0 14C0 21.732 6.26801 28 14 28Z" fill="#0088CC"/>
<path fill-rule="evenodd" clip-rule="evenodd" d="M9.48209 7.77734C9.35346 7.77734 9.23179 7.83605 9.15149 7.93688L5.53716 12.4712C5.40228 12.6404 5.41583 12.8843 5.56844 13.0374L13.7004 21.1991C13.8657 21.3652 14.1339 21.3652 14.2994 21.1991L22.4314 13.0374C22.5842 12.8843 22.5974 12.6404 22.4625 12.4712L18.8485 7.93688C18.768 7.83605 18.6464 7.77734 18.5176 7.77734H13.9999H9.48209ZM10.4946 12.3117L9.33869 9.063L6.74918 12.3117H10.4946ZM12.9676 19.2613L6.89049 13.1618H10.7972L12.9676 19.2613ZM13.9999 19.6348L11.6967 13.1618H13.9999H16.3031L13.9999 19.6348ZM15.0322 19.2613L17.2025 13.1618H21.1095L15.0322 19.2613ZM17.5054 12.3117H21.2506L18.6613 9.063L17.5054 12.3117ZM14.7757 8.62754H17.9167L16.7949 11.78L14.7757 8.62754ZM13.9999 8.98854L16.1285 12.3117H13.9999H11.8714L13.9999 8.98854ZM13.224 8.62754L11.205 11.78L10.0831 8.62754H13.224Z" fill="white"/>
</svg>
